<?xml version="1.0" encoding="utf-8"?>
<!-- Generator: Adobe Illustrator 18.1.1, SVG Export Plug-In . SVG Version: 6.00 Build 0)  -->
<!DOCTYPE svg PUBLIC "-//W3C//DTD SVG 1.1//EN" "http://www.w3.org/Graphics/SVG/1.1/DTD/svg11.dtd">
<svg version="1.1" id="レイヤー_1" xmlns="http://www.w3.org/2000/svg" xmlns:xlink="http://www.w3.org/1999/xlink" x="0px"
	 y="0px" viewBox="0 0 200 200" enable-background="new 0 0 200 200" xml:space="preserve">
<g id="レイヤー_1_1_">
</g>
<g id="icon">
	<path d="M198.4,117.8c1.1-5.8,1.6-11.7,1.6-17.8s-0.6-12-1.6-17.8l-23.3-3.4c-1.7-5.9-4.1-11.4-6.9-16.7l13.9-18.9
		c-6.9-9.8-15.5-18.4-25.3-25.3L138,31.7c-5.2-3-10.8-5.3-16.7-6.9l-3.4-23.3C112,0.6,106.1,0,100,0S88,0.6,82.2,1.6l-3.4,23.3
		c-5.9,1.7-11.4,4.1-16.7,6.9L43.1,17.8c-9.8,6.9-18.4,15.5-25.3,25.3L31.7,62c-3,5.2-5.3,10.8-6.9,16.7L1.6,82.2
		C0.6,88,0,93.9,0,100c0,6.1,0.6,12,1.6,17.8l23.3,3.4c1.7,5.9,4.1,11.4,6.9,16.7l-13.9,18.9c6.9,9.8,15.5,18.4,25.3,25.3L62,168.3
		c5.2,3,10.8,5.3,16.7,6.9l3.4,23.3c5.8,1.1,11.7,1.6,17.8,1.6s12-0.6,17.8-1.6l3.4-23.3c5.9-1.7,11.4-4.1,16.7-6.9l18.9,13.9
		c9.8-6.9,18.4-15.5,25.3-25.3L168.3,138c3-5.2,5.3-10.8,6.9-16.7L198.4,117.8z M100,131.2c-17.2,0-31.2-14.1-31.2-31.3
		S82.8,68.7,100,68.7s31.2,14.1,31.2,31.2S117.2,131.2,100,131.2z"/>
</g>
<g id="guide">
</g>
</svg>
